<?xml version="1.0" encoding="UTF-8"?>
<svg width="800px" height="600px" viewBox="0 0 800 600" xmlns="http://www.w3.org/2000/svg">
  <!-- 渐变定义 -->
  <defs>
    <linearGradient id="cloudGradient" x1="0%" y1="0%" x2="100%" y2="100%">
      <stop offset="0%" stop-color="#3B82F6" stop-opacity="0.8"/>
      <stop offset="100%" stop-color="#8B5CF6" stop-opacity="0.8"/>
    </linearGradient>
    <linearGradient id="glowGradient" x1="0%" y1="0%" x2="100%" y2="100%">
      <stop offset="0%" stop-color="#60A5FA" stop-opacity="0.3"/>
      <stop offset="100%" stop-color="#A78BFA" stop-opacity="0.3"/>
    </linearGradient>
    <filter id="glow" x="-20%" y="-20%" width="140%" height="140%">
      <feGaussianBlur stdDeviation="15" result="blur"/>
      <feMerge>
        <feMergeNode in="blur"/>
        <feMergeNode in="SourceGraphic"/>
      </feMerge>
    </filter>
  </defs>
  
  <!-- 背景光晕 -->
  <ellipse cx="400" cy="300" rx="180" ry="100" fill="url(#glowGradient)" filter="url(#glow)"/>
  
  <!-- 3D云朵主体 -->
  <g transform="translate(400, 280) scale(1, 0.6) rotate(0)">
    <!-- 底部平台 -->
    <rect x="-200" y="140" width="400" height="20" rx="10" fill="#3B82F6" opacity="0.7"/>
    <rect x="-180" y="160" width="360" height="10" rx="5" fill="#3B82F6" opacity="0.4"/>
    
    <!-- 连接线 -->
    <line x1="0" y1="60" x2="0" y2="140" stroke="#4F46E5" stroke-width="3" stroke-dasharray="5,5"/>
    <line x1="-80" y1="20" x2="-120" y2="140" stroke="#4F46E5" stroke-width="2" stroke-dasharray="5,5"/>
    <line x1="80" y1="20" x2="120" y2="140" stroke="#4F46E5" stroke-width="2" stroke-dasharray="5,5"/>
    
    <!-- 云朵 -->
    <g filter="url(#glow)">
      <path d="M-80,-40 C-110,-40 -130,-20 -130,10 C-130,40 -110,60 -80,60
              C-70,70 -50,80 -20,80 C20,80 50,60 60,30
              C80,40 100,35 110,20 C120,5 115,-15 100,-20
              C100,-50 80,-70 50,-70 C20,-70 0,-50 -10,-30
              C-30,-50 -60,-40 -80,-40 Z" 
              fill="url(#cloudGradient)"/>
    </g>
    
    <!-- 高光效果 -->
    <ellipse cx="-40" cy="-20" rx="25" ry="15" fill="white" opacity="0.2"/>
    <ellipse cx="60" cy="0" rx="20" ry="10" fill="white" opacity="0.15"/>
    
    <!-- 小点装饰 -->
    <circle cx="-60" cy="-100" r="2" fill="#60A5FA"/>
    <circle cx="80" cy="-80" r="3" fill="#60A5FA"/>
    <circle cx="150" cy="-20" r="2" fill="#60A5FA"/>
    <circle cx="-120" cy="50" r="2" fill="#60A5FA"/>
    <circle cx="100" cy="60" r="1" fill="#60A5FA"/>
  </g>
  
  <!-- 装饰元素：数据流线 -->
  <g opacity="0.6">
    <path d="M320,400 C350,390 380,410 400,380" stroke="#60A5FA" stroke-width="1" fill="none"/>
    <path d="M450,420 C470,400 500,420 520,390" stroke="#60A5FA" stroke-width="1" fill="none"/>
    <path d="M250,350 C290,360 310,330 340,340" stroke="#60A5FA" stroke-width="1" fill="none"/>
  </g>
</svg> 